<svg xmlns="http://www.w3.org/2000/svg" id="Layer_1" data-name="Layer 1" viewBox="0 0 400 140"><defs><style>.cls-1{fill:#e5e5e5}.cls-2,.cls-7{fill:none;stroke:#556a8a;stroke-width:2px}.cls-2{stroke-miterlimit:10}.cls-3{fill:#2bc7f4}.cls-4{fill:#556a8a}.cls-5{fill:#fff}.cls-6{fill:#55d2f6}.cls-7{stroke-linecap:round;stroke-linejoin:round}</style></defs><title>Artboard 1</title><path d="M323.4,69.9a19,19,0,0,0-19-19,22.47,22.47,0,0,0-5.2.7A17.43,17.43,0,0,0,273,33a19,19,0,0,0-15.3-8c-9.8,0-18.1,8.2-19.6,18.8C228.8,46,222,55.3,222,66.1s7.9,27.5,28.5,25.9h52.3C303,92,323.4,92,323.4,69.9Z" class="cls-1"/><g id="ICONS-64x"><rect width="16.5" height="50.3" x="120" y="30" class="cls-2"/><rect width="14" height="43.7" x="153" y="36.6" class="cls-2"/><rect width="16.5" height="50.3" x="136.5" y="30" class="cls-2"/><line x1="120" x2="135.7" y1="35.8" y2="35.8" class="cls-2"/><line x1="120" x2="135.7" y1="74.5" y2="74.5" class="cls-2"/><rect width="4.9" height="33.8" x="153.8" y="41.5" class="cls-1"/><line x1="153" x2="167" y1="42.4" y2="42.4" class="cls-2"/><rect width="14.8" height="4.1" x="120.8" y="30.8" class="cls-1"/><rect width="14.8" height="4.1" x="120.8" y="75.4" class="cls-1"/><rect width="12.4" height="4.1" x="153.8" y="37.4" class="cls-1"/><rect width="12.4" height="5.8" x="153.8" y="73.7" class="cls-1"/><rect width="5.8" height="48.6" x="137.3" y="30.8" class="cls-1"/><rect width="4.9" height="37.1" x="120.8" y="36.6" class="cls-1"/><rect width="11.5" height="4.1" x="139" y="34.1" class="cls-3"/><rect width="11.5" height="4.1" x="139" y="72.1" class="cls-3"/><line x1="153" x2="167" y1="73.7" y2="73.7" class="cls-2"/></g><path d="M147.7,63.2h1.9a1,1,0,0,1,1,1v45.9a1,1,0,0,1-1,1h-1.9a1,1,0,0,1-1-1V64.2A1,1,0,0,1,147.7,63.2Z" class="cls-4"/><path d="M196.5,89.9,158.2,73.3v29.5c0,10.7,17.5,19.7,38.3,19.7s38.3-9,38.3-19.6V73.2Z" class="cls-5"/><path d="M196.5,89.9,158.2,73.3v29.5c0,10.7,17.5,19.7,38.3,19.7s38.3-9,38.3-19.6V73.2Z" class="cls-2"/><polygon points="232.9 71.9 196.1 83.1 160.1 72.4 160.1 86 196.5 101.4 232.9 86 232.9 71.9" class="cls-3"/><polygon points="141 65 196.5 44.1 250.1 65 196.5 88 141 65" class="cls-1"/><polygon points="252 65 196.5 44.1 141 65 196.5 89.8 252 65" class="cls-2"/><path d="M144.8,112.8v-7.7c0-4.2,1.4-7.7,3.1-7.7h1.5c1.7,0,3.1,3.4,3.1,7.7v7.7Z" class="cls-4"/><g id="ICONS-64x-2" data-name="ICONS-64x"><path d="M325.6,62.9h-.7c-1-4.7-3.2-9.7-6.6-15.4h-6.2L288,71.6l-4.2-4.2,24.1-24.1V37.1c-5.7-3.4-10.7-5.7-15.4-6.6v-.7c6.2-1.5,16.8-.2,23.2,4.2l3.5-1.9,4.2,4.2-1.9,3.5C325.9,46.1,327.1,56.7,325.6,62.9Z" class="cls-3"/><path d="M325.6,62.9C320.9,33,299,30.2,292.3,30.1v-.4c6.2-1.5,16.8-.2,23.3,4.2l3.5-1.9,4.2,4.2-1.9,3.5C325.9,46.1,327.1,56.7,325.6,62.9Z" class="cls-6"/><path id="icon_bg" d="M321.5,39.7l1.9-3.5L319.2,32l-3.5,1.9c-6.5-4.4-17-5.6-23.2-4.2v.7A50.57,50.57,0,0,1,307.9,37v6.2L283.8,67.3l4.2,4.2,24.1-24.1h6.2c3.4,5.7,5.7,10.7,6.6,15.4h.7C327.1,56.7,325.9,46.1,321.5,39.7Z" class="cls-7" data-name="icon bg"/></g></svg>