<svg xmlns="http://www.w3.org/2000/svg" xmlns:xlink="http://www.w3.org/1999/xlink" id="Layer_1" x="0" y="0" version="1.1" viewBox="0 0 400 140" xml:space="preserve" style="enable-background:new 0 0 400 140"><style type="text/css">.st0{fill:#fff}.st1{fill:#e5e5e5}.st2,.st3{fill:none;stroke:#556a8a;stroke-width:2;stroke-miterlimit:10}.st3{fill:#55d2f6}.st4{fill:#2bc7f4}.st5{fill:#556a8a}</style><g><path d="M269.4,29.1l-13.8,0.1L227,29.5V74c0,4.6,10,8.5,23,8.7h0.5c1.8,0,3.5-0.1,5.1-0.3c4.8-0.3,9.4-1.4,13.8-3.4 c2.9-1.5,4.6-3.3,4.6-5.1V29.1L269.4,29.1z" class="st0"/><path d="M269.4,29.1v49.9c-4.4,1.9-9,3.1-13.8,3.4V29.3L269.4,29.1z" class="st1"/><path d="M227,29.5V74c0,4.6,9.9,8.5,23,8.7h0.5c13.3-0.2,23.5-4.1,23.5-8.7V29.1" class="st2"/><path d="M274.1,29.6c0,4.7-10.5,8.5-23.5,8.5c-13,0-23.5-3.8-23.5-8.5s10.8-8.5,23.8-8.5 C263.9,21.1,274.1,24.9,274.1,29.6" class="st3"/></g><g id="ICONS-64x"><rect width="16.5" height="50.3" x="120" y="30" class="st2"/><rect width="14" height="43.7" x="153" y="36.6" class="st2"/><rect width="16.5" height="50.3" x="136.5" y="30" class="st2"/><line x1="120" x2="135.7" y1="35.8" y2="35.8" class="st2"/><line x1="120" x2="135.7" y1="74.5" y2="74.5" class="st2"/><rect width="4.9" height="33.8" x="153.8" y="41.5" class="st1"/><line x1="153" x2="167" y1="42.4" y2="42.4" class="st2"/><rect width="14.8" height="4.1" x="120.8" y="30.8" class="st1"/><rect width="14.8" height="4.1" x="120.8" y="75.4" class="st1"/><rect width="12.4" height="4.1" x="153.8" y="37.4" class="st1"/><rect width="12.4" height="5.8" x="153.8" y="73.7" class="st1"/><rect width="5.8" height="48.6" x="137.3" y="30.8" class="st1"/><rect width="4.9" height="37.1" x="120.8" y="36.6" class="st1"/><rect width="11.5" height="4.1" x="139" y="34.1" class="st4"/><rect width="11.5" height="4.1" x="139" y="72.1" class="st4"/><line x1="153" x2="167" y1="73.7" y2="73.7" class="st2"/></g><path d="M147.7,63.2h1.9c0.5,0,1,0.4,1,1v45.9c0,0.5-0.4,1-1,1h-1.9c-0.5,0-1-0.4-1-1V64.2	C146.7,63.6,147.2,63.2,147.7,63.2z" class="st5"/><path d="M196.5,89.9l-38.3-16.6v29.5c0,10.7,17.5,19.7,38.3,19.7s38.3-9,38.3-19.6V73.2L196.5,89.9z" class="st0"/><path d="M196.5,89.9l-38.3-16.6v29.5c0,10.7,17.5,19.7,38.3,19.7s38.3-9,38.3-19.6V73.2L196.5,89.9z" class="st2"/><polygon points="232.9 71.9 196.1 83.1 160.1 72.4 160.1 86 196.5 101.4 232.9 86" class="st4"/><polygon points="141 65 196.5 44.1 250.1 65 196.5 88" class="st1"/><polygon points="252 65 196.5 44.1 141 65 196.5 89.8" class="st2"/><path d="M144.8,112.8v-7.7c0-4.2,1.4-7.7,3.1-7.7h1.5c1.7,0,3.1,3.4,3.1,7.7v7.7H144.8z" class="st5"/><title>i_generic-database</title><path d="M273.7,32.5L273.7,32.5c1-1,2.6-1,3.6,0l15,15c1,1,1,2.6,0,3.6l0,0c-1,1-2.6,1-3.6,0l-15-15	C272.7,35.1,272.7,33.5,273.7,32.5z" class="st5"/><path d="M268.8,14c-7.3,0-13.3,6-13.3,13.3c0,0.2,0,0.5,0,0.7c0.4,7.3,6.6,13,13.9,12.6c6.8-0.3,12.3-5.8,12.6-12.6	c0-0.2,0-0.5,0-0.7C282,20,276.1,14,268.8,14z" class="st0"/><path d="M282.1,27.3c0,0.2,0,0.5,0,0.7h-26.5c0-0.2,0-0.5,0-0.7c0-7.3,5.9-13.3,13.3-13.3S282.1,19.9,282.1,27.3	L282.1,27.3z" class="st1"/><path d="M255.5,27.3c0,7.3,6,13.3,13.3,13.3c7.3,0,13.3-6,13.3-13.3c0-7.3-5.9-13.3-13.3-13.3	C261.4,14,255.5,20,255.5,27.3z" class="st2"/></svg>